<?xml version="1.0" encoding="UTF-8"?>
<svg xmlns="http://www.w3.org/2000/svg" xmlns:xlink="http://www.w3.org/1999/xlink" width="150px" height="147px" viewBox="0 0 149 147" version="1.1">
<g id="surface1">
<path style=" stroke:none;fill-rule:nonzero;fill:rgb(65.490198%,45.882353%,94.509804%);fill-opacity:1;" d="M 149 147 L 149 86.078125 L 120.507812 86.078125 C 120.507812 77.617188 121.496094 69.960938 123.472656 63.113281 C 125.449219 56.269531 128.371094 49.730469 132.246094 43.5 C 136.121094 37.269531 141.707031 32.078125 149 27.921875 L 149 0 C 135.019531 6.152344 123.625 14.230469 114.808594 24.230469 C 105.996094 34.230469 99.464844 45.191406 95.210938 57.117188 C 90.953125 69.039062 88.828125 86.386719 88.828125 109.15625 L 88.828125 147 Z M 60.171875 147 L 60.171875 86.078125 L 31.683594 86.078125 C 31.683594 77.617188 32.667969 69.960938 34.644531 63.113281 C 36.621094 56.269531 39.546875 49.730469 43.421875 43.5 C 47.292969 37.269531 52.878906 32.078125 60.171875 27.921875 L 60.171875 0 C 46.34375 6.152344 34.988281 14.230469 26.097656 24.230469 C 17.207031 34.230469 10.636719 45.191406 6.382812 57.117188 C 2.128906 69.039062 0 86.386719 0 109.15625 L 0 147 Z M 60.171875 147 "/>
</g>
</svg>
